# xmcd
# 
# Track frame offsets:
#     150
#     16317
#     44817
#     83062
#     117262
#     141507
#     168270
#     193167
#     226512
# 
# Disc length: 3444
# 
# Revision: 1
# Processed by: cddbd v1.5.2PL0 Copyright (c) Steve Scherf et al.
# Submitted via: BonkEnc v1.0.8
# 
DISCID=730d7209
DTITLE=Marcus Strickland, Robert Glasper, Brandon Owens, E.J. Strickland - Brotherhood
DYEAR=2002
DGENRE=Contemporary Jazz
TTITLE0=Brotherhood
TTITLE1=Values and Imperatives
TTITLE2=Splendour
TTITLE3=Amen
TTITLE4=Predator
TTITLE5=Epiphany
TTITLE6=Excerpt
TTITLE7=Saouse
TTITLE8=The Unsung Hero
EXTD=YEAR: 2002
EXTT0=
EXTT1=
EXTT2=
EXTT3=
EXTT4=
EXTT5=
EXTT6=
EXTT7=
EXTT8=
PLAYORDER=
